<mxfile host="Electron" modified="2023-05-15T09:22:49.698Z" agent="Mozilla/5.0 (Windows NT 10.0; Win64; x64) AppleWebKit/537.36 (KHTML, like Gecko) draw.io/21.2.8 Chrome/112.0.5615.165 Electron/24.2.0 Safari/537.36" etag="hkqZrKxBu4ANOf89QZYC" version="21.2.8" type="device">
  <diagram name="Страница 1" id="vSN0zOsbVQ_ziBr6iRNW">
    <mxGraphModel dx="2053" dy="1188" grid="1" gridSize="10" guides="1" tooltips="1" connect="1" arrows="1" fold="1" page="1" pageScale="1" pageWidth="827" pageHeight="1169" math="0" shadow="0">
      <root>
        <mxCell id="0" />
        <mxCell id="1" parent="0" />
        <mxCell id="NfnfCwqI7M4uG_9BYdU6-4" style="edgeStyle=orthogonalEdgeStyle;rounded=0;orthogonalLoop=1;jettySize=auto;html=1;exitX=0.5;exitY=1;exitDx=0;exitDy=0;exitPerimeter=0;entryX=0.5;entryY=0;entryDx=0;entryDy=0;endArrow=none;endFill=0;" parent="1" source="NfnfCwqI7M4uG_9BYdU6-1" target="NfnfCwqI7M4uG_9BYdU6-3" edge="1">
          <mxGeometry relative="1" as="geometry" />
        </mxCell>
        <mxCell id="NfnfCwqI7M4uG_9BYdU6-1" value="Начало" style="strokeWidth=2;html=1;shape=stencil(xVVNb4MwDP01HJmAaFV7nFh37GWTdnapC1FDgpysH/9+gYBaSukgl0kc8DO85+fYSsBSXUCFQRJJKDFg70GSfCGVXIJRZAObKRy8iFx4cuFq6ULQFWbGYUcgDluBLqMNqQOe+M60DFwWSNzUWbYOojf7Tf2wNFNSWhKupO5lbvKWDLi0/0ZnRxa9vDqZSxu7qLIKJRqkHno1t3FAkHx4K8XTlD49lPqOOt2/lL7nK8V+Smuf7sX3YvHEDm48jD2QW64mHpiXXMc+351XMwdyk92NyLHUImMLyNItZIec1I/cPSyygnq5B4kuXaojXqtnd/P9zH/HILi8YVgs5zMAZfaFWobuH7r0azqHcOY6JGWgbkOPXwDlGFqecC8g76X0CbG6gduzf1zuwsPxXc+mUfyjZZ8zzoTS+GQTLD6YswYdGU6W7hXhk6ndcyHc7TS2EAOCBnV3ZQP8Ag==);whiteSpace=wrap;fontSize=17;" parent="1" vertex="1">
          <mxGeometry x="289" y="50" width="250" height="80" as="geometry" />
        </mxCell>
        <mxCell id="NfnfCwqI7M4uG_9BYdU6-6" style="edgeStyle=orthogonalEdgeStyle;rounded=0;orthogonalLoop=1;jettySize=auto;html=1;exitX=0.5;exitY=1;exitDx=0;exitDy=0;entryX=0.5;entryY=0;entryDx=0;entryDy=0;endArrow=none;endFill=0;" parent="1" source="NfnfCwqI7M4uG_9BYdU6-3" target="NfnfCwqI7M4uG_9BYdU6-5" edge="1">
          <mxGeometry relative="1" as="geometry" />
        </mxCell>
        <mxCell id="NfnfCwqI7M4uG_9BYdU6-3" value="Карта сферы" style="shape=parallelogram;html=1;strokeWidth=2;perimeter=parallelogramPerimeter;whiteSpace=wrap;rounded=0;arcSize=12;size=0.23;fontSize=17;" parent="1" vertex="1">
          <mxGeometry x="314" y="160" width="200" height="80" as="geometry" />
        </mxCell>
        <mxCell id="NfnfCwqI7M4uG_9BYdU6-8" style="edgeStyle=orthogonalEdgeStyle;rounded=0;orthogonalLoop=1;jettySize=auto;html=1;exitX=0.5;exitY=1;exitDx=0;exitDy=0;entryX=0.5;entryY=0;entryDx=0;entryDy=0;entryPerimeter=0;endArrow=none;endFill=0;" parent="1" source="NfnfCwqI7M4uG_9BYdU6-5" target="NfnfCwqI7M4uG_9BYdU6-7" edge="1">
          <mxGeometry relative="1" as="geometry">
            <mxPoint x="414" y="270" as="sourcePoint" />
          </mxGeometry>
        </mxCell>
        <mxCell id="NfnfCwqI7M4uG_9BYdU6-5" value="Перевод изображения в оттенки серого" style="verticalLabelPosition=middle;verticalAlign=middle;html=1;shape=process;whiteSpace=wrap;rounded=0;size=0.14;arcSize=6;strokeWidth=2;labelPosition=center;align=center;fontSize=17;" parent="1" vertex="1">
          <mxGeometry x="314" y="270" width="200" height="80" as="geometry" />
        </mxCell>
        <mxCell id="NfnfCwqI7M4uG_9BYdU6-14" style="edgeStyle=orthogonalEdgeStyle;rounded=0;orthogonalLoop=1;jettySize=auto;html=1;exitX=0;exitY=0.5;exitDx=0;exitDy=0;exitPerimeter=0;entryX=0.5;entryY=0;entryDx=0;entryDy=0;endArrow=none;endFill=0;" parent="1" source="NfnfCwqI7M4uG_9BYdU6-7" target="NfnfCwqI7M4uG_9BYdU6-11" edge="1">
          <mxGeometry relative="1" as="geometry" />
        </mxCell>
        <mxCell id="NfnfCwqI7M4uG_9BYdU6-19" value="Да" style="edgeLabel;html=1;align=center;verticalAlign=middle;resizable=0;points=[];fontSize=16;" parent="NfnfCwqI7M4uG_9BYdU6-14" vertex="1" connectable="0">
          <mxGeometry y="-4" relative="1" as="geometry">
            <mxPoint y="-16" as="offset" />
          </mxGeometry>
        </mxCell>
        <mxCell id="NfnfCwqI7M4uG_9BYdU6-21" style="edgeStyle=orthogonalEdgeStyle;rounded=0;orthogonalLoop=1;jettySize=auto;html=1;exitX=1;exitY=0.5;exitDx=0;exitDy=0;exitPerimeter=0;entryX=0.5;entryY=0;entryDx=0;entryDy=0;endArrow=none;endFill=0;" parent="1" source="NfnfCwqI7M4uG_9BYdU6-7" target="NfnfCwqI7M4uG_9BYdU6-20" edge="1">
          <mxGeometry relative="1" as="geometry" />
        </mxCell>
        <mxCell id="NfnfCwqI7M4uG_9BYdU6-7" value="max(PixelValue)&lt;br&gt;&amp;nbsp;/ average(PixelValue)&lt;br style=&quot;font-size: 17px;&quot;&gt;&amp;nbsp;&amp;gt;= 1.5?" style="strokeWidth=2;html=1;shape=mxgraph.flowchart.decision;whiteSpace=wrap;fontSize=17;verticalAlign=middle;" parent="1" vertex="1">
          <mxGeometry x="314" y="380" width="200" height="120" as="geometry" />
        </mxCell>
        <mxCell id="NfnfCwqI7M4uG_9BYdU6-15" style="edgeStyle=orthogonalEdgeStyle;rounded=0;orthogonalLoop=1;jettySize=auto;html=1;exitX=0.5;exitY=1;exitDx=0;exitDy=0;entryX=0.5;entryY=0;entryDx=0;entryDy=0;endArrow=none;endFill=0;" parent="1" source="NfnfCwqI7M4uG_9BYdU6-11" target="NfnfCwqI7M4uG_9BYdU6-12" edge="1">
          <mxGeometry relative="1" as="geometry" />
        </mxCell>
        <mxCell id="NfnfCwqI7M4uG_9BYdU6-11" value="Вычисление минимального процента спектра яркости, покрывающий не менее 98% пикселей" style="verticalLabelPosition=middle;verticalAlign=middle;html=1;shape=process;whiteSpace=wrap;rounded=0;size=0.13;arcSize=6;strokeWidth=2;labelPosition=center;align=center;fontSize=17;" parent="1" vertex="1">
          <mxGeometry x="114" y="470" width="200" height="140" as="geometry" />
        </mxCell>
        <mxCell id="NfnfCwqI7M4uG_9BYdU6-16" style="edgeStyle=orthogonalEdgeStyle;rounded=0;orthogonalLoop=1;jettySize=auto;html=1;exitX=0.5;exitY=1;exitDx=0;exitDy=0;entryX=0.5;entryY=0;entryDx=0;entryDy=0;endArrow=none;endFill=0;" parent="1" source="NfnfCwqI7M4uG_9BYdU6-12" target="NfnfCwqI7M4uG_9BYdU6-13" edge="1">
          <mxGeometry relative="1" as="geometry" />
        </mxCell>
        <mxCell id="NfnfCwqI7M4uG_9BYdU6-12" value="Затемнение области, соответствующей вычисленному проценту спектра" style="verticalLabelPosition=middle;verticalAlign=middle;html=1;shape=process;whiteSpace=wrap;rounded=0;size=0.14;arcSize=6;strokeWidth=2;labelPosition=center;align=center;fontSize=17;" parent="1" vertex="1">
          <mxGeometry x="114" y="640" width="200" height="120" as="geometry" />
        </mxCell>
        <mxCell id="NfnfCwqI7M4uG_9BYdU6-17" style="edgeStyle=orthogonalEdgeStyle;rounded=0;orthogonalLoop=1;jettySize=auto;html=1;exitX=0.5;exitY=1;exitDx=0;exitDy=0;entryX=0.5;entryY=0;entryDx=0;entryDy=0;entryPerimeter=0;endArrow=none;endFill=0;" parent="1" source="NfnfCwqI7M4uG_9BYdU6-13" edge="1">
          <mxGeometry relative="1" as="geometry">
            <Array as="points">
              <mxPoint x="214" y="910" />
              <mxPoint x="414" y="910" />
            </Array>
            <mxPoint x="414" y="960" as="targetPoint" />
          </mxGeometry>
        </mxCell>
        <mxCell id="NfnfCwqI7M4uG_9BYdU6-13" value="Применение медианного фильтра размытия" style="verticalLabelPosition=middle;verticalAlign=middle;html=1;shape=process;whiteSpace=wrap;rounded=0;size=0.14;arcSize=6;strokeWidth=2;labelPosition=center;align=center;fontSize=17;" parent="1" vertex="1">
          <mxGeometry x="114" y="790" width="200" height="90" as="geometry" />
        </mxCell>
        <mxCell id="NfnfCwqI7M4uG_9BYdU6-22" style="edgeStyle=orthogonalEdgeStyle;rounded=0;orthogonalLoop=1;jettySize=auto;html=1;exitX=0.5;exitY=1;exitDx=0;exitDy=0;entryX=0.5;entryY=0;entryDx=0;entryDy=0;entryPerimeter=0;endArrow=none;endFill=0;" parent="1" source="NfnfCwqI7M4uG_9BYdU6-20" edge="1">
          <mxGeometry relative="1" as="geometry">
            <Array as="points">
              <mxPoint x="640" y="910" />
              <mxPoint x="414" y="910" />
            </Array>
            <mxPoint x="414" y="960" as="targetPoint" />
          </mxGeometry>
        </mxCell>
        <mxCell id="NfnfCwqI7M4uG_9BYdU6-20" value="Сообщение о невозможности обнаружить области расположения источников света" style="verticalLabelPosition=middle;verticalAlign=middle;html=1;shape=process;whiteSpace=wrap;rounded=0;size=0.14;arcSize=6;strokeWidth=2;labelPosition=center;align=center;fontSize=17;" parent="1" vertex="1">
          <mxGeometry x="540" y="490" width="200" height="120" as="geometry" />
        </mxCell>
        <mxCell id="1ZwtwB-d4YYWzLDyMNMq-1" value="Конец" style="strokeWidth=2;html=1;shape=stencil(xVVNb4MwDP01HJmAaFV7nFh37GWTdnapC1FDgpysH/9+gYBaSukgl0kc8DO85+fYSsBSXUCFQRJJKDFg70GSfCGVXIJRZAObKRy8iFx4cuFq6ULQFWbGYUcgDluBLqMNqQOe+M60DFwWSNzUWbYOojf7Tf2wNFNSWhKupO5lbvKWDLi0/0ZnRxa9vDqZSxu7qLIKJRqkHno1t3FAkHx4K8XTlD49lPqOOt2/lL7nK8V+Smuf7sX3YvHEDm48jD2QW64mHpiXXMc+351XMwdyk92NyLHUImMLyNItZIec1I/cPSyygnq5B4kuXaojXqtnd/P9zH/HILi8YVgs5zMAZfaFWobuH7r0azqHcOY6JGWgbkOPXwDlGFqecC8g76X0CbG6gduzf1zuwsPxXc+mUfyjZZ8zzoTS+GQTLD6YswYdGU6W7hXhk6ndcyHc7TS2EAOCBnV3ZQP8Ag==);whiteSpace=wrap;fontSize=17;" parent="1" vertex="1">
          <mxGeometry x="289" y="940" width="250" height="80" as="geometry" />
        </mxCell>
      </root>
    </mxGraphModel>
  </diagram>
</mxfile>
